<?xml version="1.0" encoding="UTF-8"?>
<svg xmlns="http://www.w3.org/2000/svg" xmlns:xlink="http://www.w3.org/1999/xlink" width="74px" height="74px" viewBox="0 0 64 64" version="1.1">
<g id="surface1">
<path style=" stroke:none;fill-rule:nonzero;fill:rgb(100%,100%,99.607843%);fill-opacity:1;" d="M 10.667969 48 C 9.867188 48 9.332031 47.734375 8.800781 47.199219 C 7.734375 46.132812 7.734375 44.535156 8.800781 43.464844 L 22.933594 29.332031 L 8.800781 15.199219 C 7.734375 14.132812 7.734375 12.535156 8.800781 11.464844 C 9.867188 10.398438 11.464844 10.398438 12.535156 11.464844 L 28.535156 27.464844 C 29.601562 28.535156 29.601562 30.132812 28.535156 31.199219 L 12.535156 47.199219 C 12 47.734375 11.464844 48 10.667969 48 Z M 53.332031 53.332031 L 32 53.332031 C 30.398438 53.332031 29.332031 52.265625 29.332031 50.667969 C 29.332031 49.066406 30.398438 48 32 48 L 53.332031 48 C 54.933594 48 56 49.066406 56 50.667969 C 56 52.265625 54.933594 53.332031 53.332031 53.332031 Z M 53.332031 53.332031 "/>
</g>
</svg>
